<svg width="57" height="56" viewBox="0 0 57 56" fill="none" xmlns="http://www.w3.org/2000/svg">
<path d="M5.16681 28.0001C5.16618 23.6184 6.39955 19.325 8.72567 15.6117C11.0518 11.8984 14.3766 8.91523 18.3195 7.00381C22.2623 5.09238 26.6638 4.32998 31.0198 4.8039C35.3758 5.27781 39.5103 6.96889 42.9499 9.68349H39.4005C39.0931 9.68647 38.7992 9.81069 38.5829 10.0292C38.3665 10.2476 38.2451 10.5427 38.2451 10.8501C38.2451 11.1576 38.3665 11.4527 38.5829 11.6711C38.7992 11.8896 39.0931 12.0138 39.4005 12.0168H46.0001C46.3095 12.0168 46.6063 11.8939 46.8251 11.6751C47.0439 11.4563 47.1668 11.1595 47.1668 10.8501V4.25028C47.1683 4.09613 47.1392 3.9432 47.0813 3.80035C47.0233 3.65749 46.9376 3.52754 46.8291 3.41801C46.7206 3.30847 46.5915 3.22152 46.4492 3.16218C46.307 3.10284 46.1543 3.07228 46.0002 3.07228C45.846 3.07228 45.6934 3.10284 45.5511 3.16218C45.4088 3.22152 45.2797 3.30847 45.1712 3.41801C45.0627 3.52754 44.977 3.65749 44.919 3.80035C44.8611 3.9432 44.832 4.09613 44.8335 4.25028V8.20091C39.7463 4.00433 33.239 1.92692 26.6612 2.39954C20.0834 2.87216 13.9399 5.85854 9.50487 10.7393C5.06988 15.62 2.68373 22.0206 2.84132 28.6135C2.99892 35.2064 5.68816 41.4856 10.3513 46.1489C10.4592 46.2593 10.5879 46.3472 10.7299 46.4075C10.872 46.4677 11.0246 46.4992 11.1789 46.5001C11.3333 46.501 11.4862 46.4713 11.629 46.4126C11.7717 46.354 11.9014 46.2676 12.0106 46.1585C12.1197 46.0493 12.2061 45.9196 12.2647 45.7769C12.3234 45.6341 12.3531 45.4812 12.3522 45.3268C12.3513 45.1725 12.3198 45.0199 12.2595 44.8778C12.1993 44.7358 12.1114 44.6071 12.001 44.4992C9.82752 42.3375 8.10437 39.7663 6.93128 36.9342C5.75819 34.1021 5.15846 31.0655 5.16681 28.0001Z" fill="#EBEBEB"/>
<path d="M18.3034 48.9947C17.6414 48.6729 16.9863 48.3145 16.3565 47.9306C16.0924 47.7694 15.7751 47.7197 15.4744 47.7925C15.1736 47.8652 14.9141 48.0544 14.7529 48.3185C14.5917 48.5826 14.542 48.8999 14.6147 49.2007C14.6875 49.5014 14.8767 49.7609 15.1408 49.9221C15.8341 50.3454 16.5552 50.739 17.2839 51.0933C17.4217 51.1603 17.5713 51.1994 17.7243 51.2085C17.8772 51.2177 18.0304 51.1966 18.1752 51.1465C18.32 51.0964 18.4535 51.0183 18.5681 50.9166C18.6827 50.8149 18.7761 50.6917 18.843 50.5539C18.91 50.4161 18.9492 50.2664 18.9583 50.1135C18.9674 49.9606 18.9463 49.8074 18.8962 49.6626C18.8461 49.5178 18.768 49.3843 18.6663 49.2697C18.5647 49.1551 18.4414 49.0617 18.3036 48.9947H18.3034Z" fill="#EBEBEB"/>
<path d="M49.505 17.8249C49.5718 17.9628 49.6651 18.0862 49.7795 18.188C49.894 18.2898 50.0274 18.3681 50.1722 18.4184C50.3169 18.4687 50.4701 18.4899 50.6231 18.481C50.776 18.4721 50.9257 18.4331 51.0636 18.3663C51.2015 18.2995 51.3249 18.2062 51.4267 18.0917C51.5285 17.9773 51.6068 17.8439 51.6571 17.6991C51.7074 17.5544 51.7286 17.4012 51.7197 17.2482C51.7108 17.0953 51.6718 16.9456 51.605 16.8077C51.2535 16.0813 50.8605 15.3602 50.4372 14.664C50.3576 14.533 50.2529 14.4191 50.1292 14.3286C50.0056 14.2381 49.8653 14.1729 49.7164 14.1367C49.4157 14.0634 49.0983 14.1126 48.8339 14.2735C48.5695 14.4343 48.3798 14.6936 48.3066 14.9943C48.2334 15.295 48.2826 15.6124 48.4434 15.8768C48.8282 16.5098 49.1854 17.1652 49.505 17.8249Z" fill="#EBEBEB"/>
<path d="M31.2681 51.1699C30.5315 51.2574 29.7864 51.3095 29.0527 51.3272C28.7489 51.3389 28.4616 51.4686 28.2521 51.6889C28.0425 51.9092 27.9272 52.2025 27.9308 52.5065C27.9343 52.8105 28.0564 53.1011 28.271 53.3165C28.4856 53.5318 28.7758 53.6549 29.0798 53.6594C29.0889 53.6594 29.0986 53.6594 29.1077 53.6589C29.9143 53.64 30.7329 53.5823 31.5418 53.4868C31.8489 53.4502 32.1288 53.2933 32.3202 53.0504C32.5116 52.8076 32.5987 52.4987 32.5625 52.1916C32.5262 51.8845 32.3696 51.6044 32.127 51.4128C31.8843 51.2211 31.5755 51.1336 31.2684 51.1695L31.2681 51.1699Z" fill="#EBEBEB"/>
<path d="M24.6282 51.0118C23.9025 50.8905 23.1727 50.7327 22.4595 50.5415C22.1605 50.4616 21.842 50.5037 21.5741 50.6587C21.3061 50.8136 21.1107 51.0686 21.0308 51.3676C20.9509 51.6666 20.993 51.9851 21.1479 52.253C21.3028 52.521 21.5578 52.7164 21.8568 52.7963C22.6418 53.006 23.4451 53.1796 24.2443 53.313C24.3954 53.3382 24.55 53.3334 24.6993 53.2988C24.8485 53.2643 24.9895 53.2007 25.1142 53.1117C25.2389 53.0226 25.3448 52.9099 25.4259 52.78C25.507 52.65 25.5618 52.5053 25.587 52.3542C25.6122 52.2031 25.6074 52.0485 25.5728 51.8992C25.5383 51.75 25.4747 51.609 25.3857 51.4843C25.2966 51.3596 25.1839 51.2537 25.054 51.1726C24.924 51.0914 24.7793 51.0367 24.6282 51.0115V51.0118Z" fill="#EBEBEB"/>
<path d="M53.0212 27.4374C52.7119 27.4298 52.4122 27.5454 52.1881 27.7587C51.964 27.972 51.8338 28.2656 51.826 28.5749C51.8072 29.3126 51.7537 30.0577 51.6659 30.7902C51.6293 31.0975 51.7163 31.4067 51.9076 31.6499C52.0989 31.8932 52.3789 32.0505 52.6862 32.0873C52.7327 32.0925 52.7794 32.0952 52.8263 32.0953C53.1114 32.0949 53.3866 31.9901 53.5997 31.8006C53.8129 31.6112 53.9493 31.3503 53.9832 31.0672C54.0789 30.2623 54.1382 29.4436 54.1582 28.633C54.1621 28.4799 54.1358 28.3274 54.0808 28.1844C54.0257 28.0414 53.943 27.9106 53.8375 27.7996C53.7319 27.6886 53.6054 27.5994 53.4654 27.5373C53.3253 27.4751 53.1744 27.4412 53.0212 27.4374Z" fill="#EBEBEB"/>
<path d="M49.44 40.7822C49.184 40.6087 48.8696 40.5438 48.5657 40.6018C48.2619 40.6598 47.9935 40.8359 47.8193 41.0915C47.4046 41.7016 46.9563 42.2993 46.4857 42.8671C46.3857 42.9848 46.31 43.1212 46.2631 43.2683C46.2162 43.4155 46.199 43.5705 46.2125 43.7244C46.2259 43.8782 46.2698 44.0279 46.3416 44.1646C46.4134 44.3014 46.5116 44.4225 46.6306 44.521C46.7495 44.6195 46.8869 44.6934 47.0346 44.7384C47.1824 44.7834 47.3376 44.7986 47.4913 44.7831C47.6449 44.7676 47.794 44.7218 47.9298 44.6482C48.0656 44.5747 48.1855 44.4749 48.2824 44.3546C48.7997 43.7303 49.2936 43.0734 49.7492 42.4024C49.8353 42.2757 49.8956 42.1333 49.9267 41.9833C49.9577 41.8334 49.9589 41.6787 49.9302 41.5283C49.9015 41.3778 49.8434 41.2345 49.7593 41.1065C49.6752 40.9785 49.5667 40.8683 49.44 40.7822Z" fill="#EBEBEB"/>
<path d="M51.0479 21.9811C51.237 22.6915 51.3943 23.4212 51.5156 24.1503C51.5608 24.4227 51.7011 24.6702 51.9115 24.8488C52.122 25.0275 52.389 25.1258 52.6651 25.1261C52.7294 25.126 52.7936 25.1207 52.857 25.1102C53.0082 25.0851 53.153 25.0305 53.283 24.9495C53.4131 24.8685 53.5259 24.7626 53.615 24.638C53.7042 24.5133 53.7679 24.3724 53.8025 24.2231C53.8372 24.0738 53.842 23.9192 53.8169 23.768C53.6841 22.966 53.5107 22.1624 53.3028 21.3806C53.2232 21.0816 53.0281 20.8265 52.7603 20.6714C52.4926 20.5162 52.1742 20.4738 51.8752 20.5535C51.5762 20.6331 51.3211 20.8282 51.166 21.096C51.0109 21.3637 50.9685 21.6821 51.0481 21.9811H51.0479Z" fill="#EBEBEB"/>
<path d="M43.3471 46.0018C42.7768 46.4736 42.1793 46.9218 41.5715 47.3337C41.4447 47.4196 41.3361 47.5297 41.2519 47.6577C41.1676 47.7856 41.1094 47.9289 41.0805 48.0793C41.0516 48.2298 41.0526 48.3844 41.0835 48.5345C41.1144 48.6845 41.1746 48.827 41.2605 48.9538C41.3465 49.0806 41.4566 49.1892 41.5845 49.2735C41.7124 49.3577 41.8557 49.416 42.0062 49.4448C42.1566 49.4737 42.3113 49.4727 42.4613 49.4418C42.6113 49.4109 42.7538 49.3508 42.8806 49.2648C43.5495 48.8119 44.2063 48.3192 44.834 47.8008C45.0725 47.6037 45.223 47.3198 45.2523 47.0117C45.2815 46.7036 45.1872 46.3965 44.99 46.1579C44.7929 45.9193 44.509 45.7689 44.2009 45.7396C43.8928 45.7103 43.5857 45.8047 43.3471 46.0018Z" fill="#EBEBEB"/>
<path d="M52.1891 34.3673C51.8944 34.2737 51.5745 34.3008 51.2997 34.4427C51.025 34.5847 50.8177 34.8298 50.7235 35.1244C50.5001 35.8244 50.2393 36.5235 49.9481 37.203C49.8845 37.3443 49.8496 37.4969 49.8456 37.6518C49.8416 37.8067 49.8685 37.9608 49.9247 38.1052C49.9809 38.2496 50.0653 38.3814 50.173 38.4928C50.2807 38.6042 50.4095 38.693 50.5519 38.7541C50.6943 38.8152 50.8475 38.8473 51.0024 38.8485C51.1574 38.8497 51.311 38.8201 51.4544 38.7613C51.5978 38.7025 51.728 38.6157 51.8374 38.506C51.9469 38.3963 52.0334 38.2659 52.0919 38.1224C52.4132 37.3744 52.7003 36.6038 52.9458 35.833C52.9924 35.6871 53.0098 35.5334 52.997 35.3808C52.9842 35.2281 52.9415 35.0795 52.8712 34.9433C52.8009 34.8072 52.7045 34.6863 52.5875 34.5874C52.4704 34.4886 52.3351 34.4138 52.1891 34.3673Z" fill="#EBEBEB"/>
<path d="M37.6805 49.4575C37.0077 49.7457 36.3082 50.0061 35.6013 50.2317C35.4553 50.2782 35.32 50.353 35.2029 50.4518C35.0859 50.5507 34.9895 50.6716 34.9192 50.8077C34.8489 50.9438 34.806 51.0924 34.7932 51.2451C34.7803 51.3977 34.7976 51.5514 34.8442 51.6974C34.8907 51.8433 34.9655 51.9787 35.0644 52.0957C35.1632 52.2128 35.2841 52.3092 35.4202 52.3795C35.5563 52.4498 35.705 52.4926 35.8576 52.5055C36.0103 52.5183 36.164 52.501 36.3099 52.4545C37.0875 52.2066 37.8577 51.9202 38.5988 51.6029C38.8833 51.481 39.1077 51.2512 39.2228 50.9639C39.3378 50.6766 39.334 50.3553 39.2121 50.0708C39.0903 49.7863 38.8604 49.5619 38.5731 49.4469C38.2858 49.3318 37.9645 49.3357 37.6801 49.4575H37.6805Z" fill="#EBEBEB"/>
<path d="M18.6337 25.6164C18.6337 23.7043 17.3764 22.1722 15.4305 21.7128C14.3615 21.4596 13.2383 21.5763 12.2441 22.0437C11.25 22.5111 10.4436 23.3018 9.95665 24.2865C9.8203 24.5631 9.79895 24.8823 9.89727 25.1746C9.99558 25.4668 10.2056 25.7082 10.4813 25.8461C10.7571 25.984 11.0763 26.0072 11.369 25.9105C11.6618 25.8138 11.9044 25.6052 12.0439 25.3302C12.2929 24.8132 12.7119 24.3975 13.2308 24.1524C13.7496 23.9073 14.3369 23.8478 14.8944 23.9838C15.2243 24.0615 16.3003 24.4096 16.3003 25.6164C16.3003 26.8332 14.8949 27.7718 13.407 28.7655C11.7316 29.8838 9.8335 31.1512 9.8335 33.2499C9.8335 33.5593 9.95642 33.8561 10.1752 34.0749C10.394 34.2937 10.6908 34.4166 11.0002 34.4166H17.467C17.6212 34.4181 17.7741 34.389 17.9169 34.3311C18.0598 34.2731 18.1897 34.1874 18.2993 34.0789C18.4088 33.9705 18.4958 33.8413 18.5551 33.6991C18.6144 33.5568 18.645 33.4041 18.645 33.25C18.645 33.0958 18.6144 32.9432 18.5551 32.8009C18.4958 32.6586 18.4088 32.5295 18.2993 32.421C18.1897 32.3125 18.0598 32.2268 17.9169 32.1689C17.7741 32.1109 17.6212 32.0818 17.467 32.0833H12.8448C13.3336 31.6202 14.0245 31.1588 14.7024 30.7059C16.5455 29.4754 18.6337 28.0809 18.6337 25.6164Z" fill="#EBEBEB"/>
<path d="M29.6668 29.4584C29.6668 29.149 29.5438 28.8523 29.325 28.6335C29.1062 28.4147 28.8095 28.2918 28.5001 28.2918H27.5521V22.0939C27.5521 21.8522 27.477 21.6166 27.3373 21.4194C27.1976 21.2223 27.0002 21.0734 26.7722 20.9933C26.5443 20.9131 26.2971 20.9058 26.0647 20.9722C25.8324 21.0385 25.6264 21.1754 25.4752 21.3639L19.569 28.7288C19.4316 28.9003 19.3454 29.1072 19.3205 29.3256C19.2955 29.544 19.3327 29.765 19.4278 29.9632C19.523 30.1613 19.6721 30.3286 19.8581 30.4457C20.0442 30.5628 20.2595 30.625 20.4793 30.6251H25.2188V33.9064C25.2173 34.0605 25.2464 34.2134 25.3044 34.3563C25.3623 34.4991 25.448 34.6291 25.5565 34.7386C25.665 34.8482 25.7941 34.9351 25.9364 34.9945C26.0787 35.0538 26.2313 35.0844 26.3855 35.0844C26.5397 35.0844 26.6923 35.0538 26.8346 34.9945C26.9769 34.9351 27.106 34.8482 27.2145 34.7386C27.3229 34.6291 27.4086 34.4991 27.4666 34.3563C27.5246 34.2134 27.5536 34.0605 27.5521 33.9064V30.6251H28.5001C28.8095 30.6251 29.1063 30.5022 29.3251 30.2834C29.5439 30.0646 29.6668 29.7678 29.6668 29.4584ZM25.2188 28.2918H22.911L25.2188 25.4133V28.2918Z" fill="#EBEBEB"/>
<path d="M35.6378 20.2936C35.4875 20.2632 35.3327 20.2628 35.1823 20.2924C35.0319 20.322 34.8888 20.381 34.7613 20.466C34.6337 20.5511 34.5242 20.6604 34.439 20.7879C34.3538 20.9153 34.2947 21.0583 34.2649 21.2087L31.6399 34.3337C31.5792 34.6371 31.6414 34.9522 31.813 35.2096C31.9846 35.4671 32.2514 35.6459 32.5548 35.7066C32.6304 35.7217 32.7074 35.7293 32.7845 35.7293C33.054 35.7291 33.315 35.6355 33.5233 35.4646C33.7316 35.2937 33.8743 35.0559 33.9272 34.7917L36.5522 21.6667C36.5824 21.5165 36.5827 21.3618 36.553 21.2115C36.5234 21.0612 36.4644 20.9182 36.3795 20.7906C36.2946 20.6631 36.1854 20.5536 36.0581 20.4683C35.9308 20.383 35.788 20.3236 35.6378 20.2936Z" fill="#EBEBEB"/>
<path d="M41.6246 34.4175C41.855 34.4173 42.0802 34.349 42.2719 34.2212C42.4636 34.0934 42.6131 33.9117 42.7018 33.6991L47.0768 23.1991C47.1508 23.0218 47.1799 22.829 47.1614 22.6378C47.1429 22.4466 47.0775 22.2629 46.971 22.103C46.8645 21.9432 46.7201 21.8121 46.5508 21.7215C46.3814 21.6308 46.1922 21.5834 46.0001 21.5835H40.0939C39.7864 21.5865 39.4926 21.7107 39.2762 21.9292C39.0599 22.1476 38.9385 22.4427 38.9385 22.7501C38.9385 23.0576 39.0599 23.3527 39.2762 23.5711C39.4926 23.7896 39.7864 23.9138 40.0939 23.9168H44.2501L40.5485 32.8018C40.4748 32.979 40.446 33.1717 40.4646 33.3628C40.4832 33.5539 40.5486 33.7374 40.655 33.8972C40.7614 34.057 40.9055 34.1881 41.0746 34.2789C41.2437 34.3697 41.4326 34.4175 41.6246 34.4179V34.4175Z" fill="#EBEBEB"/>
</svg>
