<svg width="57" height="56" viewBox="0 0 57 56" fill="none" xmlns="http://www.w3.org/2000/svg">
<g clip-path="url(#clip0_13_393)">
<path d="M54.5645 20.3491L47.3065 13.0911C45.7978 11.5824 43.7918 10.7515 41.6581 10.7515H15.3418C13.2081 10.7515 11.2021 11.5824 9.69341 13.0911L2.4354 20.349C0.831086 21.9534 0.70268 24.4891 2.13691 26.2472L25.0873 54.3798C25.9274 55.4096 27.1712 56.0001 28.5 56.0001C29.8288 56.0001 31.0726 55.4096 31.9126 54.3799L54.863 26.2473C56.2972 24.4891 56.1689 21.9535 54.5645 20.3491ZM43.3837 12.6302L40.0798 21.9916L30.4805 12.3922H41.6582C42.2501 12.3922 42.8291 12.4744 43.3837 12.6302ZM38.167 22.3989H18.833L28.5 12.7319L38.167 22.3989ZM26.5197 12.3922L16.9203 21.9916L13.6163 12.6302C14.1709 12.4744 14.7499 12.3922 15.3418 12.3922H26.5197ZM10.8536 14.2512C11.234 13.8708 11.6543 13.5452 12.1048 13.2772L15.3243 22.3989H2.9989C3.13452 22.0754 3.3326 21.7722 3.59554 21.5093L10.8536 14.2512ZM28.3427 54.355L18.5943 26.7348C18.4436 26.3075 17.975 26.0835 17.5478 26.2343C17.1206 26.3851 16.8965 26.8537 17.0473 27.2808L26.1596 53.0987L3.40829 25.2102C3.12107 24.8581 2.9348 24.4562 2.84555 24.0395H39.3569L28.6573 54.355C28.6051 54.358 28.5527 54.3595 28.5 54.3595C28.4474 54.3595 28.3949 54.358 28.3427 54.355ZM30.8405 53.0987L44.8952 13.2772C45.3457 13.5452 45.7662 13.8708 46.1465 14.2512L53.4045 21.5093C53.6674 21.7721 53.8655 22.0754 54.0011 22.3989H44.6272C44.1742 22.3989 43.8069 22.7662 43.8069 23.2192C43.8069 23.6723 44.1742 24.0395 44.6272 24.0395H54.1546C54.0653 24.4562 53.879 24.8581 53.5918 25.2102L30.8405 53.0987Z" fill="#EBEBEB"/>
<path d="M28.5 7.9123C28.953 7.9123 29.3203 7.54513 29.3203 7.09198V0.820312C29.3203 0.367281 28.953 0 28.5 0C28.047 0 27.6797 0.367281 27.6797 0.820312V7.09198C27.6797 7.54502 28.047 7.9123 28.5 7.9123Z" fill="#EBEBEB"/>
<path d="M19.7026 7.45874C19.8464 7.74618 20.136 7.91232 20.437 7.91232C20.5603 7.91232 20.6854 7.88443 20.8032 7.82558C21.2084 7.62291 21.3727 7.13029 21.17 6.72505L19.3781 3.14116C19.1755 2.73593 18.6829 2.57164 18.2776 2.77432C17.8724 2.97699 17.7081 3.46961 17.9108 3.87485L19.7026 7.45874Z" fill="#EBEBEB"/>
<path d="M36.1967 7.82549C36.3145 7.88444 36.4397 7.91222 36.5629 7.91222C36.8638 7.91222 37.1536 7.74597 37.2973 7.45864L39.0892 3.87475C39.2919 3.46952 39.1276 2.97678 38.7223 2.77422C38.3173 2.57177 37.8245 2.73583 37.6218 3.14106L35.8299 6.72496C35.6273 7.13019 35.7915 7.62292 36.1967 7.82549Z" fill="#EBEBEB"/>
</g>
<defs>
<clipPath id="clip0_13_393">
<rect width="56" height="56" fill="white" transform="translate(0.5)"/>
</clipPath>
</defs>
</svg>
