<svg width="28" height="25" viewBox="0 0 28 25" fill="none" xmlns="http://www.w3.org/2000/svg">
<path d="M13.3345 4.09403L14.0102 5.49729L14.686 4.09403C15.7351 1.91543 17.9545 0.750977 20.6278 0.750977C24.2743 0.750977 27.2397 3.8501 27.2499 7.6585C27.2544 9.35531 26.4742 11.2464 25.1968 13.1809C23.9279 15.1023 22.2208 16.9885 20.4917 18.6582C18.7658 20.3249 17.0362 21.7585 15.7366 22.7763C15.0874 23.2847 14.5469 23.6883 14.1696 23.964C14.1127 24.0056 14.0595 24.0443 14.0103 24.08C13.961 24.0443 13.9078 24.0056 13.8509 23.964C13.4736 23.6881 12.9331 23.2845 12.2837 22.7757C10.9838 21.7573 9.25362 20.3225 7.52641 18.6532C5.79612 16.981 4.08701 15.0909 2.81523 13.1635C1.53506 11.2234 0.750156 9.3235 0.750156 7.61479C0.750156 3.81955 3.74708 0.750977 7.40486 0.750977C10.0767 0.750977 12.2849 1.91434 13.3345 4.09403Z" fill="#E12317" stroke="#E12317" stroke-width="1.5"/>
</svg>
