<svg width="54" height="56" viewBox="0 0 54 56" fill="none" xmlns="http://www.w3.org/2000/svg">
<path d="M53.6144 28.969C53.587 28.7217 52.8739 22.8658 48.9506 20.6969C48.6017 20.5066 48.2364 20.348 47.8592 20.2223C48.173 19.7388 48.429 19.2204 48.6236 18.6779C50.0467 14.5424 47.6195 9.91694 43.1866 8.09257C43.0028 8.01272 42.8192 7.93835 42.6353 7.87272H42.6255C40.3953 7.08085 37.952 7.13553 35.76 8.02694C35.1595 8.2785 34.5908 8.59788 34.0635 8.9785C32.2665 2.60632 25.2403 2.75288 25.1517 2.75507C22.6777 2.80757 20.2889 3.71538 18.6439 5.17663C18.4952 4.88897 18.3256 4.61335 18.1364 4.35085C15.4403 0.769908 9.54063 0.888034 9.29125 0.892409C8.8986 0.902252 8.55625 1.16038 8.43922 1.53444C8.37141 1.7521 6.94734 6.46616 8.74547 10.0077C6.73734 10.8608 5.08141 12.3768 4.05219 14.3018C3.07109 16.1415 2.86547 18.2973 3.48344 20.289C3.8225 21.3335 4.38688 22.2916 5.13609 23.0944C4.82656 23.2388 4.53792 23.4228 4.24578 23.5987C1.56828 25.2108 0.776406 28.9077 0.509531 30.7988H0.516094C0.443906 31.2866 0.397969 31.7766 0.375 32.2677H0.385937C0.373906 32.6593 0.612344 33.0148 0.979844 33.1504C2.52094 33.6732 4.13531 33.9488 5.76281 33.9674C7.42313 34.0232 9.06047 33.578 10.4638 32.6899C10.758 32.4865 11.0347 32.2591 11.2906 32.0086C11.9567 33.356 12.9859 34.4902 14.2634 35.2832C14.5292 35.4429 14.8038 35.5883 15.0848 35.7207C15.6525 36.4633 16.1808 37.2356 16.6664 38.034C14.3094 36.8637 11.8845 37.0507 10.8827 38.6027C10.3041 39.6581 10.3402 40.9443 10.9745 41.9671C9.66969 42.4243 8.75422 43.6054 8.63719 44.9837C8.63719 47.0432 11.0577 48.6553 14.1453 48.6553C15.6569 48.7012 17.1422 48.2463 18.3683 47.3614C18.0927 49.0884 17.0678 50.6054 15.5683 51.5067C15.3047 51.6379 15.1209 51.8884 15.0739 52.1793C15.0269 52.4703 15.122 52.7667 15.3298 52.9745C16.6303 54.0617 18.1681 54.8262 19.8186 55.2068L19.8766 55.2232C21.9 55.7625 23.9869 56.0238 26.0803 55.9998C28.1727 56.025 30.2584 55.7636 32.2808 55.2254L32.3378 55.209C33.9893 54.8274 35.5271 54.0629 36.8276 52.9768C37.0353 52.7679 37.1306 52.4726 37.0836 52.1815C37.0365 51.8905 36.8517 51.6401 36.5892 51.5078C34.4924 50.46 33.7705 47.8929 33.5332 45.9079L33.647 45.8805C34.1392 45.7568 34.4377 45.2582 34.3153 44.767C34.2091 44.3623 33.8417 44.0834 33.4239 44.0889V44.0659C33.4239 41.9878 34.4531 39.4393 36.3836 36.6799C36.4755 36.6799 36.5728 36.6918 36.668 36.6918C40.239 36.8166 43.4941 34.6565 44.7673 31.3171C44.8198 31.1662 44.858 31.0109 44.8985 30.8589C45.6991 31.0974 46.5304 31.2166 47.366 31.2132C49.3435 31.1596 51.2916 30.7145 53.0973 29.903C53.4514 29.7346 53.6592 29.3583 53.6144 28.969ZM37.6653 11.0162C38.1607 9.90929 39.3036 9.23882 40.5113 9.3471C41.0275 9.34929 41.5394 9.43678 42.0272 9.60522H42.0327L42.0611 9.61616C43.9566 10.2823 45.1017 11.9798 44.6095 13.4082C44.5002 13.7079 44.3252 13.9791 44.0977 14.2033C44.043 13.6915 43.8483 13.2058 43.5333 12.799C42.9908 12.1208 42.2624 11.6144 41.4366 11.3443C40.1416 10.7963 38.6475 11.0304 37.5811 11.9469C37.5395 11.6341 37.568 11.3169 37.6653 11.0162ZM42.2744 14.549C42.1595 14.7524 41.9561 14.8902 41.7242 14.923C41.3764 15.0029 41.0156 15.0051 40.6666 14.9296C40.5277 14.8946 40.39 14.8662 40.2509 14.8202H40.2411L40.2302 14.8148C40.0858 14.7644 39.9544 14.6999 39.8188 14.6376C39.0521 14.2449 38.6977 13.6554 38.8027 13.3524C38.8847 13.1162 39.2927 12.9116 39.8724 12.9116C40.2016 12.916 40.5276 12.9729 40.8382 13.0833C41.3205 13.2376 41.7493 13.5252 42.073 13.9146C42.235 14.083 42.3094 14.3182 42.2744 14.549ZM32.9972 13.2944C33.5484 11.749 34.7111 10.4999 36.2118 9.83819C36.1014 10.023 36.0073 10.2166 35.9296 10.4179C35.1039 12.811 36.7706 15.5585 39.6417 16.5516C39.8998 16.6413 40.1645 16.7091 40.4347 16.754C40.8624 16.8502 41.2998 16.9016 41.7384 16.9082C43.7368 17.0252 45.5873 15.8593 46.3442 14.0076C46.4109 13.8107 46.4603 13.6094 46.493 13.4049C47.2563 14.8443 47.3985 16.533 46.8867 18.0796C46.0533 20.2868 44.054 21.8421 41.7089 22.1068C40.9772 21.5391 40.17 21.0765 39.3114 20.7298C39.1386 20.6543 38.9614 20.5832 38.7788 20.5208C37.5384 20.091 36.2259 19.9105 34.9145 19.9893C33.0092 18.3323 32.2578 15.7083 32.9972 13.2944ZM35.0349 23.8415C34.5371 23.9673 34.0833 24.2298 33.7266 24.5983C33.684 24.2823 33.7136 23.9618 33.8119 23.6588C34.081 22.9599 34.6574 22.424 35.3728 22.2074C35.7895 22.0619 36.228 21.9887 36.6689 21.9908C37.1852 21.993 37.697 22.0816 38.1838 22.2512C38.8564 22.4776 39.4667 22.8571 39.9667 23.3613C40.0301 23.4926 40.1241 23.6063 40.2412 23.6927C40.8045 24.3391 41.0014 25.2283 40.7629 26.0519C40.6525 26.3516 40.4753 26.6229 40.2457 26.8449C40.191 26.3341 39.9952 25.8474 39.6813 25.4416C38.5556 24.0777 36.7619 23.4598 35.0349 23.8415ZM38.4222 27.1949C38.3183 27.499 37.6752 27.7451 36.8275 27.5799C36.6831 27.5405 36.5388 27.511 36.3955 27.4607V27.4651H36.3878L36.3769 27.4596C36.2325 27.4104 36.1013 27.3448 35.9667 27.2835C35.2 26.8908 34.8456 26.3013 34.9495 25.9983C35.0655 25.7949 35.2689 25.656 35.5008 25.6232C35.6703 25.5794 35.8452 25.5587 36.0214 25.5598C36.3495 25.563 36.6755 25.6199 36.985 25.7293C37.4674 25.8824 37.8961 26.1712 38.2198 26.5594C38.3828 26.729 38.4572 26.963 38.4222 27.1949ZM16.6183 24.9888C16.2388 25.3377 15.9642 25.784 15.8253 26.2794C15.6394 26.0213 15.5136 25.7238 15.4578 25.4088C15.3605 24.6673 15.6109 23.9213 16.137 23.3887V23.3919C16.7977 22.6908 17.677 22.2337 18.6308 22.0948C18.8922 22.0521 19.1558 22.0302 19.4194 22.0302C20.1139 22.0215 20.7997 22.191 21.41 22.5224C22.0783 22.8582 22.5552 23.4827 22.7017 24.2155C22.7498 24.5316 22.7258 24.8543 22.6306 25.1594C22.3408 24.734 21.9372 24.3982 21.4658 24.1904C19.8284 23.5243 17.9559 23.8327 16.6183 24.9888ZM19.9761 27.4169C19.8273 27.4552 19.6808 27.5001 19.5266 27.5263V27.5296C19.3745 27.5548 19.2258 27.558 19.0759 27.569C18.7238 27.5843 18.3716 27.5219 18.0456 27.3852C17.77 27.2627 17.5928 27.0888 17.5666 26.9269C17.5709 26.6929 17.6825 26.4741 17.8706 26.3341C18.2556 26.006 18.7259 25.7938 19.228 25.7227C19.3975 25.6943 19.5692 25.6801 19.7409 25.6801C20.0734 25.6735 20.4027 25.7358 20.7089 25.8638C20.9845 25.9874 21.1606 26.1602 21.1891 26.3232C21.2405 26.6382 20.7953 27.1577 19.9761 27.4169ZM20.6553 20.1774C20.8959 19.6207 21.0753 19.0388 21.1891 18.4427C22.4436 18.9808 23.7966 19.2565 25.1616 19.251C27.3261 19.2696 29.4348 18.5641 31.1531 17.2462C31.4736 18.3826 32.0238 19.4424 32.7686 20.3579C32.4755 20.4465 32.1868 20.5493 31.9034 20.6663C30.1361 21.3762 28.6836 22.6996 27.815 24.3949V24.3982C27.1478 23.253 26.2116 22.2873 25.0861 21.5862C23.7506 20.7527 22.227 20.2693 20.6553 20.1774ZM25.1616 4.56303C27.1873 4.56303 28.8344 5.79788 28.8344 7.3171C28.8278 7.63319 28.7523 7.94272 28.6123 8.226C27.9025 7.01085 26.5659 6.30319 25.1616 6.39944C23.7583 6.30319 22.4206 7.01085 21.7108 8.226C21.5708 7.94272 21.4953 7.63319 21.4898 7.3171C21.4898 5.79788 23.137 4.56303 25.1616 4.56303ZM26.998 9.1535C26.998 9.47288 26.4719 9.91475 25.6209 10.0373C25.4689 10.0515 25.3202 10.0712 25.1616 10.0712C25.0041 10.0712 24.8564 10.0515 24.7033 10.0373C23.8523 9.91475 23.3263 9.47288 23.3263 9.1535C23.3263 8.77944 24.0405 8.23585 25.1616 8.23585C26.2827 8.23585 26.998 8.77944 26.998 9.1535ZM19.7092 6.70132C19.6742 6.90475 19.6556 7.11147 19.6534 7.3171C19.6534 9.84803 22.1242 11.9076 25.1616 11.9076C28.2 11.9076 30.6697 9.84803 30.6697 7.3171C30.6685 7.10053 30.6478 6.88288 30.6083 6.6696C31.6704 7.67366 32.3321 9.02882 32.4688 10.4835C31.4418 11.7785 30.8742 13.3765 30.8533 15.0291C29.3647 16.5724 27.3063 17.4354 25.1615 17.4157C23.8161 17.4201 22.4916 17.0843 21.3104 16.4412C21.2677 15.8571 21.1561 15.2807 20.9779 14.7229C20.4354 13.0385 19.3252 11.5948 17.8377 10.6366C17.9472 9.1371 18.6155 7.73272 19.7092 6.70132ZM10.0241 2.74522C11.5072 2.82507 15.0127 3.25382 16.6697 5.45335C16.9464 5.83616 17.1684 6.25616 17.3281 6.70132C16.9213 7.29741 16.5986 7.946 16.3678 8.6296C15.7444 7.46257 14.8573 6.45741 13.7778 5.69178C13.3731 5.38772 12.7978 5.46975 12.4927 5.87553C12.1886 6.28132 12.2706 6.85663 12.6764 7.16069C13.4934 7.736 14.1748 8.48194 14.6747 9.346C13.3053 9.07475 11.8933 9.09991 10.5327 9.41819C9.24859 7.21647 9.72 4.0971 10.0241 2.74522ZM10.1783 11.4252V11.4285C10.2133 11.4165 10.2472 11.4001 10.2844 11.3891C10.3205 11.3782 10.3489 11.3727 10.3817 11.3629C10.8127 11.2316 11.26 11.1627 11.7106 11.1594C12.9542 11.0468 14.1278 11.7479 14.6178 12.8963C14.7097 13.2026 14.7327 13.5252 14.6823 13.8402C14.3334 13.4618 13.8861 13.1883 13.3906 13.0494C12.5506 12.8296 11.6636 12.8602 10.84 13.1348C9.47281 13.4694 8.41297 14.549 8.10453 15.9227C7.88578 15.6952 7.71953 15.4229 7.61891 15.1232C7.16828 13.7013 8.31344 12.0662 10.1783 11.4252ZM12.3855 16.4576C12.2411 16.5177 12.1033 16.5844 11.9534 16.6315V16.6348C11.8025 16.6829 11.6538 16.708 11.5039 16.7398C10.6573 16.883 10.0219 16.6216 9.92563 16.3176C9.81188 15.9599 10.3281 15.226 11.3945 14.8848C11.6898 14.7874 11.9983 14.7371 12.31 14.7338C12.9203 14.7338 13.3491 14.9537 13.4267 15.2008C13.5241 15.5049 13.1577 16.0824 12.3855 16.4576ZM10.6213 29.9271C10.6213 29.9501 10.6322 29.9707 10.6355 29.9938C10.3052 30.452 9.90047 30.8513 9.43672 31.1739C7.15516 32.7293 3.69344 32.0183 2.26609 31.6257C2.29234 31.3632 2.32625 31.0974 2.36781 30.8403C2.37219 30.8042 2.37438 30.7703 2.37438 30.7353H2.38094C2.64891 29.0979 3.50061 26.177 5.28703 25.1101C5.73547 24.8159 6.22766 24.5961 6.745 24.4593C7.53031 24.9592 8.39 25.33 9.29235 25.5607C7.81469 26.4456 6.45297 27.5109 5.23781 28.7303C4.99938 28.9611 4.90313 29.3024 4.98734 29.6228C5.07156 29.9444 5.32203 30.1949 5.64359 30.2791C5.96406 30.3634 6.30531 30.2671 6.53609 30.0286C7.78625 28.7731 9.20813 27.7 10.7591 26.8414C10.4998 27.849 10.4528 28.9001 10.6213 29.9271ZM12.1175 23.9946C10.4495 24.1171 8.78922 23.661 7.41766 22.704C6.38844 21.9777 5.62172 20.9365 5.23453 19.7377C4.76422 18.2087 4.92719 16.556 5.68516 15.1473C5.69938 15.1177 5.71906 15.0926 5.73328 15.0641C5.76172 15.2719 5.80656 15.4776 5.86891 15.6777C6.60609 17.5951 8.50047 18.8124 10.5502 18.6888C10.9559 18.6844 11.3595 18.6407 11.7566 18.5587C12.2695 18.4788 12.7672 18.3202 13.2309 18.0873C14.2525 17.6432 15.1286 16.9224 15.7608 16.0069C16.5209 14.9427 16.7441 13.5865 16.3667 12.3341C16.2934 12.1318 16.2038 11.9349 16.0977 11.7468C17.5819 12.4435 18.715 13.7199 19.2291 15.2774C19.7322 16.9552 19.4861 18.7687 18.552 20.2507C18.4788 20.2605 18.4055 20.2649 18.3322 20.2769C15.9894 20.6379 13.862 21.8465 12.3527 23.673C12.2684 23.778 12.1963 23.8885 12.1175 23.9946ZM15.2467 33.729C13.7581 32.8333 12.73 31.3369 12.4292 29.6263C12.2181 28.2963 12.473 26.9335 13.15 25.7698C13.3338 25.7085 13.4464 25.6779 13.4519 25.6779C13.5164 25.656 13.5788 25.6276 13.6356 25.5915C13.6411 25.6298 13.6411 25.6669 13.6477 25.7052C13.8795 26.9904 14.6933 28.0962 15.8516 28.6999C16.7375 29.1854 17.7339 29.437 18.7445 29.4282C19.1077 29.4271 19.4697 29.3965 19.8284 29.3364C20.0713 29.2948 20.3119 29.2346 20.547 29.1581C21.6375 28.8715 22.6241 28.2809 23.393 27.4551C24.2975 26.5123 24.7131 25.2031 24.5206 23.9114C24.4856 23.7068 24.4331 23.5067 24.3664 23.3109C25.7216 24.2132 26.648 25.6318 26.9291 27.2364C27.5044 30.7331 24.7263 34.1128 20.7264 34.7701C18.8342 35.1071 16.8841 34.7363 15.2467 33.729ZM14.1453 46.8201C12.0431 46.8201 10.4736 45.8499 10.4736 44.9837C10.4736 44.1174 12.0431 43.1473 14.1453 43.1473C16.2475 43.1473 17.8181 44.1174 17.8181 44.9837C17.8181 45.8499 16.2475 46.8201 14.1453 46.8201ZM14.1453 41.3119C13.687 41.3119 13.2298 41.3502 12.7781 41.4257C12.3395 40.9204 12.2061 40.2193 12.4281 39.5893H12.4292C12.9006 38.8619 14.7458 38.9024 16.5122 40.0432C17.3314 40.5485 18.0041 41.2605 18.4602 42.1082C18.5214 42.3466 18.5794 42.585 18.6198 42.8223C17.3642 41.7866 15.7717 41.2485 14.1453 41.3119ZM34.5547 52.3457C33.7847 52.7669 32.972 53.1037 32.1299 53.3509C30.4642 52.6245 29.2369 51.1579 28.8158 49.3904C28.7588 49.0611 28.5281 48.7888 28.2119 48.6782C27.8969 48.5689 27.5458 48.639 27.2977 48.8621C27.0494 49.0852 26.9411 49.4265 27.0166 49.7524C27.3502 51.4007 28.2656 52.8751 29.5956 53.9065C27.2648 54.2465 24.8958 54.2465 22.5639 53.9065C23.8928 52.8773 24.8083 51.4051 25.1441 49.7568C25.2184 49.4319 25.1113 49.0907 24.8619 48.8676C24.6136 48.6444 24.2636 48.5744 23.9475 48.6838C23.6314 48.7943 23.4006 49.0666 23.3438 49.3959C22.9227 51.1621 21.6944 52.6279 20.0297 53.353C19.1886 53.1069 18.3748 52.7701 17.6059 52.349C19.4522 50.774 20.1642 48.2737 20.4278 46.2743C22.2927 46.6166 24.1838 46.7993 26.0803 46.8201C27.9769 46.7982 29.867 46.6132 31.7328 46.2688C31.9953 48.2704 32.7073 50.7718 34.5547 52.3457ZM31.5884 44.0659V44.4324C29.7718 44.7759 27.9288 44.9607 26.0803 44.9837C24.2319 44.9607 22.3878 44.7759 20.5722 44.4324V44.0659C20.5722 41.4782 19.3538 38.8203 17.957 36.6218C18.4175 36.6875 18.8813 36.7214 19.3461 36.7214C19.9061 36.7203 20.465 36.6742 21.0184 36.5836C21.3663 36.5256 21.7119 36.4479 22.052 36.3528C22.8909 37.8709 23.3295 39.577 23.3263 41.3118C23.3263 41.8182 23.7364 42.2295 24.2439 42.2295C24.7514 42.2295 25.1616 41.8182 25.1616 41.3118C25.1659 39.3573 24.6934 37.4323 23.7845 35.7031C25.5969 34.8412 27.0756 33.4085 27.9944 31.6245C28.0217 31.677 28.0435 31.7307 28.0731 31.7842C28.4898 32.5203 29.0061 33.1962 29.6066 33.7923C27.9113 35.9317 26.9926 38.5818 26.998 41.3118C26.998 41.8182 27.4092 42.2295 27.9156 42.2295C28.4232 42.2295 28.8344 41.8182 28.8344 41.3118C28.8377 39.0095 29.6088 36.7739 31.0252 34.9593C31.7611 35.4538 32.5586 35.8507 33.3964 36.1384C33.7103 36.2467 34.0264 36.3342 34.3425 36.414C32.5138 39.2141 31.5884 41.7844 31.5884 44.0659ZM43.0313 30.7201C41.8773 34.0702 37.8261 35.7229 33.9947 34.4027C32.1714 33.7989 30.6337 32.5466 29.6733 30.883C28.7939 29.4382 28.5839 27.6815 29.0991 26.0705C29.6142 24.4583 30.8031 23.1491 32.3573 22.4808C32.248 22.6657 32.1539 22.8604 32.0763 23.0605C31.2505 25.4537 32.9174 28.2023 35.7895 29.1954C36.0509 29.2851 36.3189 29.354 36.5924 29.3999C37.0167 29.494 37.4499 29.5454 37.8852 29.5521C39.8834 29.669 41.7352 28.5019 42.492 26.6491C42.5586 26.4533 42.608 26.251 42.6407 26.0465C43.4042 27.4858 43.5453 29.1746 43.0313 30.7201ZM45.175 29.0237C45.198 27.5929 44.8402 26.1832 44.1391 24.9363C45.0229 25.2568 45.8388 25.738 46.5486 26.3538C46.9085 26.7016 47.4816 26.6973 47.8349 26.3429C48.1893 25.9885 48.1947 25.4165 47.8469 25.0555C46.8888 24.2068 45.7765 23.5516 44.569 23.1283C45.2918 22.7816 45.9602 22.331 46.5519 21.7907C47.078 21.8826 47.5877 22.0554 48.0613 22.3037C50.4741 23.6369 51.3885 27.0483 51.6761 28.5052C50.413 28.9832 47.5014 29.8757 45.175 29.0237Z" fill="#AE8646"/>
</svg>
