<svg width="27" height="27" viewBox="0 0 27 27" fill="none" xmlns="http://www.w3.org/2000/svg">
<path d="M14.0495 5.7168C10.288 5.7168 7.22891 8.7756 7.22754 12.5355C7.22699 13.8241 7.58754 15.0788 8.27004 16.1646L8.43212 16.4225L7.74332 18.9389L10.3241 18.2619L10.5732 18.4097C11.6201 19.0312 12.8203 19.3597 14.0441 19.3603H14.0468C17.8054 19.3603 20.8644 16.3012 20.8661 12.541C20.8669 10.7188 20.1581 9.00556 18.8706 7.71667C17.5831 6.4275 15.8709 5.71734 14.0495 5.7168ZM18.0608 15.4673C17.8899 15.9461 17.0708 16.3833 16.6772 16.4419C16.324 16.4947 15.8769 16.5166 15.3861 16.3606C15.0885 16.2661 14.7066 16.1399 14.2174 15.9289C12.1605 15.041 10.8174 12.9703 10.7151 12.8336C10.6127 12.6968 9.87788 11.7222 9.87788 10.713C9.87788 9.70394 10.4073 9.20815 10.5954 9.00282C10.7832 8.7975 11.0055 8.7463 11.1421 8.7463C11.2787 8.7463 11.4156 8.74767 11.535 8.75342C11.6609 8.75972 11.8298 8.70579 11.9963 9.10521C12.1671 9.51586 12.5772 10.5247 12.6284 10.6274C12.6796 10.73 12.7138 10.8497 12.6454 10.9865C12.5769 11.1231 12.543 11.2088 12.4403 11.3285C12.3377 11.4481 12.2252 11.5957 12.1329 11.6877C12.0302 11.7898 11.9235 11.9009 12.0431 12.106C12.1627 12.3113 12.5742 12.9826 13.1836 13.526C13.9666 14.2244 14.6272 14.4409 14.8322 14.5436C15.0373 14.6463 15.1569 14.629 15.2763 14.4924C15.3959 14.3555 15.7888 13.8937 15.9254 13.6886C16.062 13.4836 16.1986 13.5175 16.3867 13.586C16.5745 13.6544 17.5825 14.1502 17.7876 14.2529C17.9926 14.3555 18.1292 14.4067 18.1804 14.4924C18.2316 14.5778 18.2316 14.9885 18.0608 15.4673Z" fill="#00554E"/>
<path d="M13.5 0C6.04423 0 0 6.04423 0 13.5C0 20.9558 6.04423 27 13.5 27C20.9558 27 27 20.9558 27 13.5C27 6.04423 20.9558 0 13.5 0ZM14.047 20.7458C14.0467 20.7458 14.0473 20.7458 14.047 20.7458H14.0437C12.6705 20.7452 11.3214 20.4008 10.1231 19.7471L5.77375 20.8882L6.9378 16.6365C6.21971 15.3923 5.84191 13.9807 5.84274 12.535C5.8441 8.01124 9.5249 4.33099 14.047 4.33099C16.2418 4.33182 18.3019 5.18624 19.8508 6.73713C21.3998 8.28775 22.2526 10.3492 22.2515 12.5415C22.2496 17.0653 18.5688 20.7458 14.047 20.7458Z" fill="#00554E"/>
</svg>
