<svg width="32" height="32" viewBox="0 0 32 32" fill="none" xmlns="http://www.w3.org/2000/svg">
<path d="M15.3306 10.036L16.0073 11.4526L16.6841 10.036C17.3911 8.5559 18.8899 7.75 20.7341 7.75C23.2059 7.75 25.2429 9.87253 25.2499 12.514C25.253 13.6769 24.7204 14.9976 23.8174 16.3761C22.9227 17.7419 21.7151 19.0878 20.486 20.2842C19.2599 21.4776 18.0305 22.5049 17.106 23.2347C16.6529 23.5924 16.2744 23.8775 16.0073 24.0745C15.7403 23.8775 15.3617 23.5922 14.9085 23.2343C13.9839 22.5041 12.754 21.4759 11.5271 20.2807C10.2971 19.0825 9.08808 17.7337 8.19125 16.3637C7.28622 14.9811 6.75011 13.6539 6.75011 12.4819C6.75011 9.85371 8.80632 7.75 11.2892 7.75C13.132 7.75 14.623 8.5548 15.3306 10.036Z" stroke="#EBEBEB" stroke-width="1.5"/>
<circle cx="24.5" cy="7.5" r="4.5" fill="#AE8646"/>
</svg>
