<svg width="32" height="32" viewBox="0 0 32 32" fill="none" xmlns="http://www.w3.org/2000/svg">
<path d="M23.2 14.4002C23.2 20.0002 16 24.8002 16 24.8002C16 24.8002 8.79999 20.0002 8.79999 14.4002C8.79999 12.4906 9.55856 10.6593 10.9088 9.30903C12.2591 7.95876 14.0904 7.2002 16 7.2002C17.9095 7.2002 19.7409 7.95876 21.0912 9.30903C22.4414 10.6593 23.2 12.4906 23.2 14.4002Z" stroke="#333333" stroke-width="1.5" stroke-linecap="round" stroke-linejoin="round"/>
<path d="M16 16.8002C17.3255 16.8002 18.4 15.7257 18.4 14.4002C18.4 13.0747 17.3255 12.0002 16 12.0002C14.6745 12.0002 13.6 13.0747 13.6 14.4002C13.6 15.7257 14.6745 16.8002 16 16.8002Z" stroke="#333333" stroke-width="1.5" stroke-linecap="round" stroke-linejoin="round"/>
</svg>
