<svg width="57" height="56" viewBox="0 0 57 56" fill="none" xmlns="http://www.w3.org/2000/svg">
<g clip-path="url(#clip0_13_350)">
<path d="M28.4453 14.5459C25.2186 14.5459 22.5935 17.171 22.5935 20.3977C22.5935 23.6244 25.2186 26.2495 28.4453 26.2495C31.672 26.2495 34.2971 23.6244 34.2971 20.3977C34.2971 17.171 31.672 14.5459 28.4453 14.5459ZM28.4453 24.6088C26.1233 24.6088 24.2341 22.7197 24.2341 20.3977C24.2341 18.0756 26.1233 16.1865 28.4453 16.1865C30.7673 16.1865 32.6564 18.0756 32.6564 20.3977C32.6564 22.7197 30.7673 24.6088 28.4453 24.6088Z" fill="#EBEBEB"/>
<path d="M56.4519 46.0399L54.2506 39.4062C54.2501 39.4047 54.2495 39.4031 54.249 39.4016L52.0001 32.6246C51.9996 32.6231 51.9991 32.6217 51.9986 32.6202L49.3633 24.6788C49.252 24.3434 48.9382 24.1169 48.5848 24.1169H39.6604C40.138 22.9848 40.4224 21.875 40.4224 20.8355C40.4224 14.2314 35.0496 8.8584 28.4454 8.8584C21.8412 8.8584 16.4683 14.2313 16.4683 20.8355C16.4683 21.875 16.7528 22.9848 17.2303 24.1169H13.1868V23.1359C14.6775 22.7576 15.7712 21.3731 15.6991 19.7509C15.6243 18.0673 14.2698 16.6828 12.5883 16.5734C10.6489 16.4473 9.03044 17.9892 9.03044 19.9022C9.03044 21.4587 10.102 22.7694 11.5462 23.1359V24.1169H8.41521C8.06182 24.1169 7.74791 24.3433 7.63668 24.6788L5.0014 32.6203C5.00096 32.6218 5.00041 32.6232 4.99998 32.6247L2.75101 39.4016C2.75057 39.4031 2.74991 39.4047 2.74948 39.4062L0.548085 46.0399C0.490991 46.2119 0.481257 46.3994 0.537804 46.5717C0.652319 46.9211 0.971803 47.1411 1.31918 47.1411H12.4835C12.4844 47.1411 12.4853 47.1413 12.4861 47.1413C12.487 47.1413 12.488 47.1411 12.4889 47.1411H28.8734C29.3264 47.1411 29.6937 46.7738 29.6937 46.3208C29.6937 45.8677 29.3264 45.5004 28.8734 45.5004H20.7945L22.5057 40.469H34.6035L36.3148 45.5004H33.6491C33.1961 45.5004 32.8288 45.8677 32.8288 46.3208C32.8288 46.7738 33.1961 47.1411 33.6491 47.1411H55.6807C56.0281 47.1411 56.3476 46.9211 56.4621 46.5717C56.5187 46.3994 56.509 46.212 56.4519 46.0399ZM47.9927 25.7575L50.0798 32.0468H47.7547L45.6157 25.7575H47.9927ZM39.133 25.7575L41.272 32.0468H34.0482C35.785 30.1837 37.6009 27.9716 38.8481 25.7575H39.133ZM28.4453 10.499C34.1447 10.499 38.7816 15.136 38.7816 20.8354C38.7816 23.1452 36.9303 26.4156 33.4278 30.2931C31.4118 32.525 29.3726 34.3674 28.4422 35.1798C25.1281 32.3161 18.1089 25.3193 18.1089 20.8355C18.1089 15.1359 22.7457 10.499 28.4453 10.499ZM10.6711 19.9019C10.6711 18.9671 11.4316 18.2065 12.3665 18.2065C13.3014 18.2065 14.0619 18.9669 14.0619 19.9019C14.0619 20.8368 13.3014 21.5973 12.3665 21.5973C11.4316 21.5973 10.6711 20.8368 10.6711 19.9019ZM11.8986 45.5004H2.45558L4.1253 40.469H10.0371V41.8433C10.0371 42.2963 10.4043 42.6636 10.8574 42.6636C11.3106 42.6636 11.6778 42.2963 11.6778 41.8433V40.469H13.6098L11.8986 45.5004ZM9.54494 36.7429C9.54494 36.0192 10.1337 35.4304 10.8574 35.4304C11.5812 35.4304 12.1699 36.0192 12.1699 36.7429C12.1699 37.4666 11.5812 38.0554 10.8574 38.0554C10.1337 38.0554 9.54494 37.4666 9.54494 36.7429ZM41.5773 39.9128L43.4777 45.5004H38.0477L35.9676 39.3845C35.8546 39.052 35.5423 38.8284 35.191 38.8284H21.9183C21.5671 38.8284 21.2549 39.052 21.1418 39.3845L19.0617 45.5004H13.6316L15.532 39.9128C15.6442 39.5829 15.5377 39.2085 15.2423 38.9878C15.0964 38.8789 14.9148 38.8284 14.7327 38.8284H12.9466C13.5328 38.2412 13.8738 37.4092 13.8011 36.5011C13.6852 35.0537 12.5003 33.889 11.0513 33.796C9.33549 33.6859 7.90421 35.0504 7.90421 36.743C7.90421 37.5562 8.23463 38.2938 8.76827 38.8284H4.66977L6.37569 33.6875H14.5892C15.0422 33.6875 15.4095 33.3202 15.4095 32.8672C15.4095 32.4142 15.0422 32.0469 14.5892 32.0469H6.92016L9.00726 25.7576H11.5462V25.8836C11.5462 26.3328 11.8924 26.7245 12.3413 26.7379C12.8059 26.7518 13.1868 26.3794 13.1868 25.9179V25.7576H18.0423C19.2895 27.9718 21.1054 30.1839 22.8422 32.0469H19.3649C18.9118 32.0469 18.5445 32.4142 18.5445 32.8672C18.5445 33.3202 18.9118 33.6875 19.3649 33.6875H24.4346C26.2776 35.5151 27.7561 36.752 27.9214 36.8891C28.0733 37.0152 28.2592 37.0782 28.4453 37.0782C28.6313 37.0782 28.8173 37.0152 28.9692 36.8891C29.1344 36.752 30.6131 35.5149 32.4559 33.6875H42.3949C42.577 33.6875 42.7585 33.637 42.9044 33.528C43.2 33.3073 43.3064 32.9329 43.1942 32.6031L40.866 25.7575H43.8827L46.3905 33.1313C46.5036 33.4638 46.8159 33.6875 47.1672 33.6875H50.6241L52.33 38.8284H46.1197C46.9819 38.3985 47.6092 37.556 47.7349 36.5667C47.9801 34.6375 46.3503 33.0079 44.4212 33.2531C43.0666 33.4252 41.9979 34.531 41.867 35.8903C41.7436 37.1701 42.4432 38.3049 43.4977 38.8284H42.3767C42.1946 38.8284 42.013 38.8789 41.8671 38.9878C41.5716 39.2084 41.4651 39.5829 41.5773 39.9128ZM44.6351 37.4834C44.0509 37.4091 43.5792 36.9375 43.5047 36.3533C43.3954 35.4957 44.1198 34.771 44.9775 34.88C45.5617 34.9543 46.0334 35.4259 46.1079 36.0101C46.2172 36.8678 45.4927 37.5924 44.6351 37.4834ZM45.2106 45.5004L43.4993 40.469H43.9857V41.2549C43.9857 41.6452 44.2456 42.0032 44.6275 42.0837C45.1586 42.1956 45.6263 41.7935 45.6263 41.2822V40.469H52.8744L54.5441 45.5004H45.2106Z" fill="#EBEBEB"/>
</g>
<defs>
<clipPath id="clip0_13_350">
<rect width="56" height="56" fill="white" transform="translate(0.5)"/>
</clipPath>
</defs>
</svg>
