<svg width="90" height="29" viewBox="0 0 90 29" fill="none" xmlns="http://www.w3.org/2000/svg">
<path d="M70.0017 14.5C70.0017 22.4564 63.4432 29 55.3016 29C47.2354 29 40.6016 22.4564 40.6016 14.5C40.6016 6.54359 47.16 0 55.2262 0C63.4432 0 70.0017 6.54359 70.0017 14.5Z" fill="#F9B50B"/>
<path d="M50.3247 14.5744C50.3247 13.5333 50.174 12.4923 50.0232 11.5256H40.977C41.0524 11.0051 41.2032 10.559 41.3539 9.9641H49.4201C49.2693 9.44359 49.0432 8.92308 48.817 8.40256H41.957C42.1832 7.88205 42.4847 7.4359 42.7862 6.84103H47.9878C47.6863 6.32051 47.3093 5.8 46.857 5.27949H43.9924C44.4447 4.75897 44.897 4.31282 45.5001 3.79231C42.937 1.41282 39.4693 0 35.6247 0C27.6339 0.223077 21 6.54359 21 14.5C21 22.4564 27.5585 29 35.7001 29C39.5447 29 42.937 27.5128 45.5755 25.2077C46.1032 24.7615 46.5555 24.241 47.0832 23.6462H44.0678C43.6909 23.2 43.3139 22.6795 43.0124 22.159H48.1386C48.4401 21.7128 48.7416 21.1923 48.9678 20.5974H42.1078C41.8816 20.1513 41.6555 19.6308 41.5047 19.0359H49.5709C50.0232 17.6974 50.3247 16.2103 50.3247 14.5744Z" fill="#C8191C"/>
<path d="M40.9022 18.2178L41.1283 16.8794C41.0529 16.8794 40.9022 16.9537 40.7514 16.9537C40.2237 16.9537 40.1483 16.6563 40.2237 16.5076L40.676 13.8307H41.5053L41.7314 12.3435H40.9776L41.1283 11.4512H39.5452C39.5452 11.4512 38.6406 16.5076 38.6406 17.1025C38.6406 17.9948 39.1683 18.4409 39.9222 18.4409C40.3745 18.4409 40.7514 18.2922 40.9022 18.2178Z" fill="white"/>
<path d="M41.4297 15.763C41.4297 17.9194 42.9374 18.4399 44.1435 18.4399C45.2743 18.4399 45.802 18.2168 45.802 18.2168L46.1036 16.7296C46.1036 16.7296 45.2743 17.1014 44.4451 17.1014C42.7112 17.1014 43.0128 15.8373 43.0128 15.8373H46.1789C46.1789 15.8373 46.4051 14.8707 46.4051 14.4245C46.4051 13.4578 45.8774 12.1937 44.1435 12.1937C42.6358 12.1194 41.4297 13.8296 41.4297 15.763ZM44.1435 13.5322C44.9728 13.5322 44.822 14.4989 44.822 14.5732H43.0882C43.1635 14.4989 43.3143 13.5322 44.1435 13.5322Z" fill="white"/>
<path d="M54.0196 18.2183L54.3211 16.508C54.3211 16.508 53.5673 16.8798 52.9642 16.8798C51.9088 16.8798 51.3811 16.0619 51.3811 15.0952C51.3811 13.2362 52.2857 12.2695 53.4165 12.2695C54.1704 12.2695 54.8488 12.7157 54.8488 12.7157L55.075 11.0798C55.075 11.0798 54.1704 10.708 53.2657 10.708C51.4565 10.708 49.7227 12.2695 49.7227 15.1695C49.7227 17.1029 50.6273 18.367 52.5119 18.367C53.1904 18.4413 54.0196 18.2183 54.0196 18.2183Z" fill="white"/>
<path d="M32.3814 12.1211C31.326 12.1211 30.4968 12.4185 30.4968 12.4185L30.2706 13.757C30.2706 13.757 30.9491 13.4596 32.0045 13.4596C32.5322 13.4596 32.9845 13.5339 32.9845 13.9801C32.9845 14.2775 32.9091 14.3519 32.9091 14.3519H32.2306C30.8737 14.3519 29.4414 14.8724 29.4414 16.657C29.4414 18.0698 30.346 18.3672 30.9491 18.3672C32.0045 18.3672 32.5322 17.698 32.6076 17.698L32.5322 18.2929H33.8137L34.4168 14.0544C34.4168 12.1955 32.9091 12.1211 32.3814 12.1211ZM32.683 15.5416C32.683 15.7647 32.5322 17.0288 31.6276 17.0288C31.1753 17.0288 31.0245 16.657 31.0245 16.4339C31.0245 16.0621 31.2506 15.5416 32.4568 15.5416C32.6076 15.5416 32.683 15.5416 32.683 15.5416Z" fill="white"/>
<path d="M35.9276 18.3664C36.3045 18.3664 38.2645 18.4408 38.2645 16.3587C38.2645 14.4254 36.3799 14.7972 36.3799 14.0536C36.3799 13.6818 36.6814 13.5331 37.2091 13.5331C37.4353 13.5331 38.2645 13.6074 38.2645 13.6074L38.4907 12.1946C38.4907 12.1946 37.963 12.0459 36.983 12.0459C35.8522 12.0459 34.646 12.4921 34.646 14.0536C34.646 15.8382 36.6061 15.6895 36.6061 16.3587C36.6061 16.8049 36.0784 16.8792 35.7014 16.8792C35.023 16.8792 34.2691 16.6562 34.2691 16.6562L34.043 18.069C34.1937 18.2177 34.646 18.3664 35.9276 18.3664Z" fill="white"/>
<path d="M66.9829 10.9316L66.6813 13.0137C66.6813 13.0137 66.0782 12.2701 65.1736 12.2701C63.7413 12.2701 62.5352 13.9804 62.5352 15.9881C62.5352 17.2522 63.1382 18.5163 64.4952 18.5163C65.3998 18.5163 66.0029 17.9214 66.0029 17.9214L65.9275 18.4419H67.5106L68.6413 11.0804L66.9829 10.9316ZM66.229 14.947C66.229 15.765 65.8521 16.8804 64.9475 16.8804C64.4198 16.8804 64.1182 16.4342 64.1182 15.6163C64.1182 14.3522 64.6459 13.6086 65.3998 13.6086C65.9275 13.6829 66.229 14.0547 66.229 14.947Z" fill="white"/>
<path d="M23.8671 18.2932L24.7717 12.7906L24.9225 18.2932H25.9779L28.0132 12.7906L27.184 18.2932H28.8425L30.124 10.9316H27.5609L25.9779 15.4675L25.9025 10.9316H23.6409L22.3594 18.2932H23.8671Z" fill="white"/>
<path d="M47.9878 18.2936C48.4401 15.7654 48.5155 13.6833 49.6462 14.0551C49.797 13.0885 50.0232 12.6423 50.1739 12.2705H49.8724C49.1939 12.2705 48.5908 13.1628 48.5908 13.1628L48.7416 12.3449H47.2339L46.2539 18.2936H47.9878Z" fill="white"/>
<path d="M57.6353 12.1211C56.5799 12.1211 55.7507 12.4185 55.7507 12.4185L55.5245 13.757C55.5245 13.757 56.203 13.4596 57.2584 13.4596C57.7861 13.4596 58.2384 13.5339 58.2384 13.9801C58.2384 14.2775 58.163 14.3519 58.163 14.3519H57.4846C56.1276 14.3519 54.6953 14.8724 54.6953 16.657C54.6953 18.0698 55.5999 18.3672 56.203 18.3672C57.2584 18.3672 57.7861 17.698 57.8615 17.698L57.7861 18.2929H59.2184L59.8215 14.0544C59.8215 12.1955 58.163 12.1211 57.6353 12.1211ZM58.0122 15.5416C58.0122 15.7647 57.8615 17.0288 56.9569 17.0288C56.5046 17.0288 56.3538 16.657 56.3538 16.4339C56.3538 16.0621 56.5799 15.5416 57.7861 15.5416C57.9369 15.5416 57.9369 15.5416 58.0122 15.5416Z" fill="white"/>
<path d="M61.0307 18.2936C61.483 15.7654 61.5584 13.6833 62.6892 14.0551C62.84 13.0885 63.0661 12.6423 63.2169 12.2705H62.9153C62.2369 12.2705 61.6338 13.1628 61.6338 13.1628L61.7846 12.3449H60.2769L59.2969 18.2936H61.0307Z" fill="white"/>
</svg>
