<svg width="32" height="32" viewBox="0 0 32 32" fill="none" xmlns="http://www.w3.org/2000/svg">
<path d="M26.8983 26.8159C27.1912 27.1088 27.6661 27.1088 27.959 26.8159C28.2519 26.523 28.2519 26.0481 27.959 25.7552L26.8983 26.8159ZM22.7114 20.5076C22.4185 20.2147 21.9436 20.2147 21.6507 20.5076C21.3578 20.8005 21.3578 21.2754 21.6507 21.5683L22.7114 20.5076ZM24.2659 14.2221C24.2659 19.1379 20.2809 23.1229 15.3651 23.1229V24.6229C21.1093 24.6229 25.7659 19.9663 25.7659 14.2221H24.2659ZM15.3651 23.1229C10.4494 23.1229 6.46436 19.1379 6.46436 14.2221H4.96436C4.96436 19.9663 9.62095 24.6229 15.3651 24.6229V23.1229ZM6.46436 14.2221C6.46436 9.30631 10.4494 5.32129 15.3651 5.32129V3.82129C9.62095 3.82129 4.96436 8.47788 4.96436 14.2221H6.46436ZM15.3651 5.32129C20.2809 5.32129 24.2659 9.30631 24.2659 14.2221H25.7659C25.7659 8.47788 21.1093 3.82129 15.3651 3.82129V5.32129ZM27.959 25.7552L22.7114 20.5076L21.6507 21.5683L26.8983 26.8159L27.959 25.7552Z" fill="#BABABA"/>
</svg>
