<svg width="32" height="32" viewBox="0 0 32 32" fill="none" xmlns="http://www.w3.org/2000/svg">
<path d="M5.71429 10.0572L8.95239 5.71436H21.9048L25.1429 10.0572M5.71429 10.0572V25.2572C5.71429 25.8331 5.94173 26.3854 6.34657 26.7926C6.75141 27.1999 7.30049 27.4286 7.87302 27.4286H22.9841C23.5567 27.4286 24.1057 27.1999 24.5106 26.7926C24.9154 26.3854 25.1429 25.8331 25.1429 25.2572V10.0572M5.71429 10.0572H25.1429M19.746 14.4001C19.746 15.5519 19.2912 16.6565 18.4815 17.4709C17.6718 18.2854 16.5736 18.7429 15.4286 18.7429C14.2835 18.7429 13.1854 18.2854 12.3757 17.4709C11.566 16.6565 11.1111 15.5519 11.1111 14.4001" stroke="#EBEBEB" stroke-width="1.5" stroke-linecap="round" stroke-linejoin="round"/>
</svg>
