<svg width="32" height="32" viewBox="0 0 32 32" fill="none" xmlns="http://www.w3.org/2000/svg">
<path d="M24 26V23.8889C24 22.7691 23.5522 21.6951 22.7552 20.9033C21.9582 20.1115 20.8772 19.6667 19.75 19.6667H11.25C10.1228 19.6667 9.04183 20.1115 8.2448 20.9033C7.44777 21.6951 7 22.7691 7 23.8889V26M19.75 11.2222C19.75 13.5541 17.8472 15.4444 15.5 15.4444C13.1528 15.4444 11.25 13.5541 11.25 11.2222C11.25 8.89035 13.1528 7 15.5 7C17.8472 7 19.75 8.89035 19.75 11.2222Z" stroke="#EBEBEB" stroke-width="1.5" stroke-linecap="round" stroke-linejoin="round"/>
<circle cx="20.5" cy="7.5" r="4.5" fill="#AE8646"/>
</svg>
