<svg width="90" height="29" viewBox="0 0 90 29" fill="none" xmlns="http://www.w3.org/2000/svg">
<path d="M49 13.9396L45.7857 10.5072L42.2143 13.5894L45.4286 17.0918L49 13.9396Z" fill="#137ABE"/>
<path d="M39.6429 7.70531L42.8571 11.1377L46.4286 8.05556L43.2143 4.62319L39.6429 7.70531Z" fill="#137ABE"/>
<path d="M51.5 19.8937L48.2857 16.4614L44.7143 19.6135L47.9286 23.0459L51.5 19.8937Z" fill="#137ABE"/>
<path d="M47.7857 25.6377L41.9286 19.2633L43.5714 17.8623L39.4286 13.3792L41.0714 11.9783L36.9286 7.49517L43.4286 1.82126L45.5 3.99275L49.0714 0.980676L51.1429 3.08213L52.5 1.8913C52.2143 1.75121 51.8571 1.54106 51.5714 1.40097C49.5 0.560386 47.2857 0 44.9286 0C36.7143 0 30 6.51449 30 14.5C30 22.4855 36.7143 29 45 29C47.7143 29 50.2143 28.2995 52.3571 27.1087C53.0714 26.6884 53.7143 26.2681 54.3571 25.8478L51.3571 22.5556L47.7857 25.6377Z" fill="#137ABE"/>
<path d="M46.2143 6.02415L48.5714 8.61594L51.2857 6.30435L48.8571 3.71256L46.2143 6.02415Z" fill="#137ABE"/>
<path d="M53.7143 11.4879L51.2857 8.89614L48.6429 11.2778L51.0714 13.7995L53.7143 11.4879Z" fill="#137ABE"/>
<path d="M56 16.9517L53.5714 14.3599L50.9286 16.6715L53.3571 19.3333L56 16.9517Z" fill="#137ABE"/>
<path d="M56.1429 8.4058L54.3571 9.94686L56 11.6981L57.7143 10.157L56.1429 8.4058Z" fill="#137ABE"/>
<path d="M56.6429 15.0604L58.2143 16.8116L60 15.2705L58.3571 13.5193L56.6429 15.0604Z" fill="#137ABE"/>
<path d="M52.0714 4.83333L53.7143 6.58454L55.4286 5.04348L53.8571 3.29227L52.0714 4.83333Z" fill="#137ABE"/>
<path d="M53.2857 21.9251L55.7143 24.5169L58.3571 22.2053L55.9286 19.6135L53.2857 21.9251Z" fill="#137ABE"/>
</svg>
