<svg width="57" height="56" viewBox="0 0 57 56" fill="none" xmlns="http://www.w3.org/2000/svg">
<path d="M50.3965 50.4561L44.0715 33.8263C44.6965 33.4527 45.2396 32.9569 45.6686 32.3686C46.1294 31.7352 46.4448 31.008 46.5924 30.2388C46.7399 29.4696 46.716 28.6772 46.5222 27.9183C46.3584 27.2547 46.386 26.5583 46.6016 25.9097C46.8173 25.2611 47.2122 24.6869 47.7407 24.2535C48.3525 23.752 48.8452 23.1209 49.1832 22.4057C49.5212 21.6905 49.696 20.9091 49.695 20.1181C49.694 19.327 49.5172 18.5461 49.1775 17.8317C48.8377 17.1174 48.3434 16.4875 47.7304 15.9875C47.2038 15.5524 46.8112 14.9771 46.5979 14.3282C46.3846 13.6792 46.3593 12.9832 46.5251 12.3205C46.7173 11.5629 46.7402 10.7722 46.5922 10.0048C46.4443 9.2373 46.129 8.51186 45.6689 7.88003C45.1971 7.23101 44.588 6.69401 43.885 6.30727C43.182 5.92054 42.4023 5.69358 41.6016 5.64257C40.9127 5.59621 40.2503 5.3591 39.6884 4.95778C39.1266 4.55645 38.6875 4.00673 38.4202 3.37011C38.121 2.64132 37.6664 1.98659 37.0881 1.45159C36.5099 0.916589 35.8218 0.514208 35.072 0.272518C34.3114 0.023838 33.5058 -0.0559832 32.7112 0.0386182C31.9167 0.13322 31.1523 0.399967 30.4714 0.820268C29.8777 1.183 29.1954 1.37493 28.4997 1.37493C27.8039 1.37493 27.1216 1.183 26.5279 0.820268C25.847 0.399951 25.0827 0.133193 24.2881 0.0385915C23.4935 -0.0560103 22.6879 0.0238202 21.9274 0.272518C21.1778 0.514406 20.49 0.916862 19.9119 1.45183C19.3339 1.9868 18.8794 2.64141 18.5803 3.37002C18.3123 4.00783 17.8718 4.55837 17.3084 4.95989C16.745 5.36141 16.0809 5.59805 15.3905 5.64327C14.5911 5.69508 13.813 5.92244 13.1114 6.30916C12.4099 6.69588 11.8022 7.23247 11.3316 7.88073C10.8708 8.51408 10.5554 9.24129 10.4078 10.0105C10.2603 10.7798 10.2842 11.5721 10.478 12.331C10.6417 12.9946 10.6142 13.691 10.3986 14.3396C10.1829 14.9882 9.78797 15.5625 9.25946 15.9959C8.64769 16.4974 8.155 17.1285 7.81702 17.8437C7.47904 18.5589 7.30423 19.3403 7.30522 20.1313C7.30621 20.9223 7.48297 21.7033 7.82273 22.4176C8.16249 23.1319 8.65676 23.7619 9.26978 24.2618C9.79633 24.6969 10.1889 25.2721 10.4022 25.921C10.6155 26.5699 10.6408 27.2659 10.4751 27.9286C10.2829 28.6862 10.26 29.4768 10.408 30.2443C10.5559 31.0117 10.8712 31.7372 11.3313 32.369C11.7604 32.957 12.3036 33.4525 12.9285 33.8258L6.60375 50.4561C6.54414 50.6124 6.53065 50.7826 6.56487 50.9464C6.59908 51.1102 6.67958 51.2607 6.79679 51.3801C6.914 51.4995 7.06301 51.5828 7.22614 51.6201C7.38927 51.6573 7.55966 51.647 7.7171 51.5903L14.6061 49.1141L18.1069 55.5428C18.1821 55.681 18.2931 55.7963 18.4283 55.8767C18.5635 55.9571 18.7178 55.9995 18.8751 55.9995C18.8948 55.9995 18.9144 55.9987 18.9341 55.9974C19.101 55.9862 19.2613 55.9272 19.3958 55.8276C19.5302 55.7281 19.6334 55.592 19.6929 55.4356L25.6144 39.8746C25.9323 39.7544 26.2384 39.605 26.5288 39.4283C27.1224 39.0658 27.8045 38.874 28.5001 38.874C29.1957 38.874 29.8778 39.0658 30.4714 39.4283L30.4723 39.4288C30.7619 39.6031 31.0669 39.7503 31.3836 39.8686L37.3073 55.4348C37.3668 55.5912 37.47 55.7273 37.6044 55.8269C37.7389 55.9264 37.8992 55.9854 38.0661 55.9966C38.0858 55.9979 38.1054 55.9987 38.1251 55.9987C38.2824 55.9987 38.4368 55.9563 38.5719 55.8759C38.7071 55.7955 38.8181 55.6802 38.8933 55.542L42.3941 49.1133L49.2831 51.5895C49.4405 51.6462 49.6109 51.6565 49.7741 51.6193C49.9372 51.582 50.0862 51.4987 50.2034 51.3793C50.3206 51.2599 50.4011 51.1094 50.4353 50.9456C50.4696 50.7818 50.4561 50.6116 50.3965 50.4553V50.4561ZM18.7341 53.0353L15.7844 47.619C15.6845 47.4358 15.5224 47.2943 15.3273 47.22C15.1323 47.1457 14.9171 47.1436 14.7206 47.214L8.91515 49.3004L14.5537 34.4759C14.8317 34.541 15.1143 34.5846 15.399 34.6065C16.0879 34.6528 16.7503 34.8899 17.3121 35.2913C17.874 35.6926 18.3131 36.2423 18.5803 36.8789C18.8795 37.6077 19.334 38.2624 19.9123 38.7974C20.4905 39.3323 21.1785 39.7347 21.9282 39.9764C22.469 40.1511 23.0334 40.2413 23.6016 40.244L18.7341 53.0353ZM25.6085 37.9395C25.144 38.2264 24.6225 38.4084 24.0804 38.4728C23.5383 38.5372 22.9887 38.4825 22.4699 38.3125C21.962 38.1491 21.4958 37.877 21.1038 37.515C20.7118 37.1529 20.4035 36.7098 20.2004 36.2164C19.8073 35.2765 19.1602 34.4646 18.3316 33.8717C17.5031 33.2789 16.5257 32.9286 15.5092 32.86C14.9657 32.8251 14.4366 32.671 13.9594 32.4084C13.4822 32.1459 13.0687 31.7815 12.7483 31.3411C12.4384 30.9152 12.2264 30.4262 12.1273 29.9089C12.0282 29.3916 12.0445 28.8588 12.175 28.3486C12.419 27.3636 12.3793 26.3297 12.0606 25.3663C11.7418 24.4029 11.157 23.5493 10.3738 22.9042C9.96083 22.5669 9.62824 22.1419 9.40016 21.6599C9.17208 21.178 9.05425 20.6513 9.05523 20.1181C9.05621 19.5849 9.17597 19.0586 9.40582 18.5775C9.63568 18.0964 9.96983 17.6726 10.384 17.3368C11.1654 16.6901 11.7479 15.8356 12.0644 14.872C12.3809 13.9083 12.4184 12.8748 12.1726 11.8908C12.0435 11.3818 12.0282 10.8506 12.1278 10.335C12.2273 9.81947 12.4393 9.33217 12.7485 8.90781C13.0702 8.46642 13.4852 8.10141 13.964 7.83879C14.4429 7.57617 14.9738 7.42241 15.5189 7.38846C16.5338 7.31856 17.5092 6.96763 18.336 6.37494C19.1628 5.78225 19.8084 4.97118 20.2005 4.03248C20.4035 3.53903 20.7118 3.09583 21.1038 2.73387C21.4958 2.37191 21.9621 2.0999 22.4701 1.93686C22.9891 1.767 23.5388 1.71237 24.081 1.77678C24.6232 1.84119 25.1448 2.02308 25.6095 2.30978C26.4802 2.84145 27.4806 3.12274 28.5007 3.12274C29.5209 3.12274 30.5212 2.84145 31.3919 2.30978C31.8565 2.02316 32.3779 1.8413 32.92 1.77689C33.4621 1.71249 34.0116 1.76707 34.5304 1.93686C35.0384 2.10018 35.5046 2.37234 35.8966 2.73435C36.2886 3.09637 36.5969 3.53952 36.8 4.03292C37.1931 4.97286 37.8402 5.78475 38.6687 6.37758C39.4973 6.97041 40.4746 7.32075 41.4911 7.38933C42.0346 7.42421 42.5638 7.57839 43.041 7.84091C43.5181 8.10343 43.9316 8.46784 44.252 8.90825C44.562 9.3341 44.774 9.82313 44.8731 10.3404C44.9722 10.8577 44.9559 11.3905 44.8253 11.9007C44.5814 12.8857 44.6211 13.9196 44.9398 14.883C45.2585 15.8464 45.8433 16.7 46.6266 17.3451C47.0395 17.6824 47.3721 18.1075 47.6002 18.5894C47.8283 19.0713 47.9461 19.5981 47.9452 20.1312C47.9442 20.6644 47.8244 21.1907 47.5946 21.6718C47.3647 22.1529 47.0305 22.5768 46.6164 22.9125C45.835 23.5592 45.2524 24.4136 44.9359 25.3772C44.6194 26.3408 44.5819 27.3743 44.8276 28.3583C44.9567 28.8673 44.972 29.3984 44.8725 29.914C44.7729 30.4296 44.561 30.9169 44.2517 31.3412C43.9301 31.7826 43.515 32.1477 43.0362 32.4103C42.5573 32.6729 42.0264 32.8267 41.4813 32.8606C40.4664 32.9305 39.491 33.2814 38.6642 33.8741C37.8374 34.4668 37.1918 35.2779 36.7997 36.2166C36.5967 36.71 36.2885 37.1532 35.8964 37.5152C35.5044 37.8771 35.0381 38.1491 34.5301 38.3122C34.0112 38.4826 33.4614 38.5375 32.9191 38.473C32.3768 38.4086 31.8552 38.2264 31.3907 37.9393C30.52 37.4077 29.5196 37.1264 28.4995 37.1265C27.4794 37.1265 26.4791 37.4079 25.6085 37.9395ZM42.2796 47.2137C42.0831 47.1432 41.8679 47.1453 41.6728 47.2195C41.4777 47.2938 41.3156 47.4354 41.2158 47.6187L38.2661 53.0349L33.3993 40.246C33.9674 40.2427 34.5315 40.152 35.072 39.977C35.8218 39.7351 36.5099 39.3326 37.0883 38.7976C37.6667 38.2625 38.1214 37.6078 38.4208 36.8789C38.6885 36.2411 39.1287 35.6904 39.692 35.2889C40.2553 34.8874 40.9194 34.6508 41.6097 34.6058C41.8916 34.5841 42.1715 34.5409 42.4468 34.4765L48.0851 49.3001L42.2796 47.2137Z" fill="#EBEBEB"/>
<path d="M41.625 20.125C41.625 17.5291 40.8552 14.9915 39.413 12.8331C37.9708 10.6748 35.921 8.99249 33.5227 7.99909C31.1244 7.00569 28.4854 6.74577 25.9394 7.2522C23.3934 7.75863 21.0548 9.00867 19.2192 10.8442C17.3837 12.6798 16.1336 15.0184 15.6272 17.5644C15.1208 20.1104 15.3807 22.7494 16.3741 25.1477C17.3675 27.546 19.0498 29.5959 21.2081 31.038C23.3665 32.4802 25.9041 33.25 28.5 33.25C31.9798 33.2461 35.3159 31.8621 37.7765 29.4015C40.2371 26.9409 41.6211 23.6048 41.625 20.125ZM28.5 31.5C26.2502 31.5 24.051 30.8329 22.1804 29.583C20.3098 28.3331 18.8518 26.5565 17.9909 24.478C17.1299 22.3995 16.9047 20.1124 17.3436 17.9059C17.7825 15.6993 18.8658 13.6725 20.4567 12.0817C22.0475 10.4908 24.0743 9.40748 26.2809 8.96857C28.4874 8.52967 30.7745 8.75493 32.853 9.61588C34.9315 10.4768 36.7081 11.9348 37.958 13.8054C39.2079 15.676 39.875 17.8752 39.875 20.125C39.8716 23.1408 38.6721 26.0321 36.5396 28.1646C34.4071 30.2971 31.5158 31.4966 28.5 31.5Z" fill="#EBEBEB"/>
<path d="M35.4592 17.2227L31.1927 16.6028L29.2847 12.737C29.2042 12.6006 29.0895 12.4875 28.9519 12.4089C28.8144 12.3304 28.6587 12.2891 28.5003 12.2891C28.3418 12.2891 28.1862 12.3304 28.0486 12.4089C27.911 12.4875 27.7963 12.6006 27.7158 12.737L25.8078 16.6028L21.5413 17.2227C21.3796 17.2461 21.2277 17.3143 21.1028 17.4195C20.9779 17.5247 20.8849 17.6628 20.8344 17.8182C20.7839 17.9735 20.7779 18.1399 20.817 18.2985C20.8562 18.457 20.9389 18.6015 21.0559 18.7155L24.1441 21.7246L23.4152 25.9736C23.3877 26.1344 23.4057 26.2997 23.4672 26.4508C23.5287 26.6019 23.6312 26.7329 23.7631 26.8288C23.8951 26.9247 24.0512 26.9819 24.2139 26.9937C24.3767 27.0056 24.5394 26.9718 24.6839 26.896L28.5003 24.8901L32.3164 26.896C32.4609 26.9718 32.6237 27.0056 32.7864 26.9937C32.9491 26.9819 33.1052 26.9247 33.2372 26.8288C33.3691 26.7329 33.4717 26.6019 33.5331 26.4508C33.5946 26.2997 33.6126 26.1344 33.5851 25.9736L32.8563 21.7246L35.9444 18.7155C36.0614 18.6015 36.1442 18.457 36.1833 18.2985C36.2225 18.1399 36.2165 17.9735 36.1659 17.8182C36.1154 17.6628 36.0225 17.5247 35.8975 17.4195C35.7726 17.3143 35.6207 17.2461 35.459 17.2227H35.4592ZM31.3056 20.7927C31.2041 20.8918 31.1283 21.0141 31.0845 21.149C31.0407 21.2839 31.0303 21.4275 31.0543 21.5673L31.561 24.5222L28.907 23.1271C28.7815 23.0612 28.6418 23.0267 28.5001 23.0267C28.3583 23.0267 28.2187 23.0612 28.0932 23.1271L25.4395 24.5218L25.9462 21.5669C25.9702 21.4271 25.9598 21.2836 25.916 21.1487C25.8723 21.0138 25.7964 20.8915 25.6949 20.7924L23.5478 18.6997L26.5146 18.2686C26.6551 18.2483 26.7884 18.194 26.9032 18.1105C27.018 18.0271 27.1107 17.917 27.1734 17.7896L28.5003 15.1016L29.8273 17.7898C29.89 17.9171 29.9827 18.0273 30.0975 18.1107C30.2123 18.1942 30.3456 18.2484 30.4861 18.2688L33.4529 18.6999L31.3056 20.7927Z" fill="#EBEBEB"/>
</svg>
